<?xml version="1.0" encoding="iso-8859-1"?>
<!-- Uploaded to: SVG Repo, www.svgrepo.com, Generator: SVG Repo Mixer Tools -->
<svg height="800px" width="800px" version="1.1" id="Layer_1" xmlns="http://www.w3.org/2000/svg" xmlns:xlink="http://www.w3.org/1999/xlink" 
	 viewBox="0 0 512 512" xml:space="preserve">
<g>
	<path style="fill:#B0D3F0;" d="M358.238,123.586c-11.423,0-21.91,1.218-31.709,3.31V52.966H185.288v73.905
		c-9.728-2.066-20.162-3.284-31.532-3.284c-109.542,0-146.061,129.474-67.672,215.252C113.908,369.284,248.679,504.673,255.997,512
		c7.318-7.327,142.089-142.716,169.913-173.162C504.308,253.06,467.788,123.586,358.238,123.586"/>
	<path style="fill:#26B99A;" d="M353.014,264.828c0,53.628-43.476,97.103-97.103,97.103s-97.103-43.476-97.103-97.103
		c0-15.916,3.902-30.888,10.69-44.138H45.064c-4.44,38.559,8.157,82.185,41.022,118.148C113.91,369.284,248.681,504.673,255.999,512
		c7.318-7.327,142.08-142.716,169.913-173.162c32.865-35.964,45.462-79.589,41.022-118.148h-124.61
		C349.112,233.94,353.014,248.911,353.014,264.828"/>
	<path style="fill:#C03A2B;" d="M353.014,264.828c0-53.628-43.476-97.103-97.103-97.103s-97.103,43.476-97.103,97.103
		s43.476,97.103,97.103,97.103S353.014,318.455,353.014,264.828"/>
	<path style="fill:#FFFFFF;" d="M286.876,220.69c-14.945,0-26.253,10.116-30.985,21.186c-4.723-11.07-16.022-21.186-30.976-21.186
		c-30.976,0-41.092,36.89-18.714,58.739c8.342,8.13,47.395,45.339,49.752,47.192c2.737-2.551,41.569-38.956,49.638-47.192
		C328.03,256.503,317.861,220.69,286.876,220.69"/>
	<path style="fill:#90BAE1;" d="M326.531,52.966H185.29c-14.627,0-26.483-11.855-26.483-26.483S170.662,0,185.29,0h141.241
		c14.627,0,26.483,11.855,26.483,26.483S341.158,52.966,326.531,52.966"/>
</g>
</svg>